<svg xmlns="http://www.w3.org/2000/svg" viewBox="0 0 640 640" role="img" aria-label="AtlasOps AI neural orb">
  <defs>
    <radialGradient id="core" cx="50%" cy="44%" r="54%">
      <stop offset="0" stop-color="#f7fbff"/>
      <stop offset=".36" stop-color="#4ea5ff"/>
      <stop offset=".68" stop-color="#1d438c"/>
      <stop offset="1" stop-color="#07090d"/>
    </radialGradient>
    <linearGradient id="ring" x1="0" y1="0" x2="1" y2="1">
      <stop offset="0" stop-color="#d8b65a"/>
      <stop offset=".55" stop-color="#4ea5ff"/>
      <stop offset="1" stop-color="#42d392"/>
    </linearGradient>
    <filter id="glow" x="-40%" y="-40%" width="180%" height="180%">
      <feGaussianBlur stdDeviation="16" result="blur"/>
      <feMerge><feMergeNode in="blur"/><feMergeNode in="SourceGraphic"/></feMerge>
    </filter>
  </defs>
  <rect width="640" height="640" rx="56" fill="#07090d"/>
  <circle cx="320" cy="320" r="220" fill="none" stroke="url(#ring)" stroke-width="7" opacity=".62"/>
  <circle cx="320" cy="320" r="156" fill="url(#core)" filter="url(#glow)"/>
  <g fill="none" stroke="#d8b65a" stroke-width="4" opacity=".72">
    <path d="M123 319c68-77 134-116 197-116s129 39 197 116c-68 77-134 116-197 116s-129-39-197-116Z"/>
    <path d="M320 102v92M320 446v92M102 320h92M446 320h92"/>
  </g>
  <g fill="#f7fbff">
    <circle cx="320" cy="204" r="7"/><circle cx="205" cy="320" r="7"/><circle cx="435" cy="320" r="7"/><circle cx="320" cy="436" r="7"/>
  </g>
</svg>