<svg xmlns="http://www.w3.org/2000/svg" viewBox="0 0 64 64" role="img" aria-label="AtlasOps AI logo mark">
  <defs>
    <radialGradient id="core" cx="50%" cy="42%" r="58%">
      <stop offset="0" stop-color="#F8FAFC"/>
      <stop offset=".34" stop-color="#3B82F6"/>
      <stop offset=".7" stop-color="#102a62"/>
      <stop offset="1" stop-color="#080B12"/>
    </radialGradient>
    <linearGradient id="ring" x1="0" y1="0" x2="1" y2="1">
      <stop offset="0" stop-color="#D4AF37"/>
      <stop offset=".55" stop-color="#3B82F6"/>
      <stop offset="1" stop-color="#22C55E"/>
    </linearGradient>
  </defs>
  <rect width="64" height="64" rx="96" fill="#080B12"/>
  <circle cx="256" cy="256" r="178" fill="none" stroke="url(#ring)" stroke-width="8"/>
  <circle cx="256" cy="256" r="116" fill="url(#core)"/>
  <path d="M108 256c52-62 101-93 148-93s96 31 148 93c-52 62-101 93-148 93s-96-31-148-93Z" fill="none" stroke="#D4AF37" stroke-width="5" opacity=".82"/>
  <path d="M256 84v72M256 356v72M84 256h72M356 256h72" stroke="#3B82F6" stroke-width="5" stroke-linecap="round" opacity=".78"/>
  <g fill="#F8FAFC">
    <circle cx="256" cy="163" r="8"/><circle cx="163" cy="256" r="8"/><circle cx="349" cy="256" r="8"/><circle cx="256" cy="349" r="8"/>
  </g>
</svg>